# xmcd
#
# Track frame offsets:
#	150
#	22275
#	43623
#	66938
#	91678
#	115088
#	141739
#	164233
#	183630
#	207201
#	229632
#
# Disc length: 3372 seconds
#
# Revision: 1
# Processed by: cddbd v1.5.2PL0 Copyright (c) Steve Scherf et al.
# Submitted via: EZCDAudioConverter 8.0.2.1
#
DISCID=a40d2a0b
DTITLE=V.A  - Tình ca Diệu Hương 2 - Ở Lại Ta Đi
DYEAR=2003
DGENRE=Contemporary Pop
TTITLE0=Diệu Hương and Quang Dũng - Hát Cho Đời , Hát Cho Người
TTITLE1=Ý Lan - Bên Em Ngày Cuối
TTITLE2=Quang Dũng - Từ Giã Em
TTITLE3=Diệu Hương - Mình Ơi
TTITLE4=Quang Dũng - Ở Lại Ta Đi
TTITLE5=Mỹ Tâm - Còn Trong Nỗi Nhớ
TTITLE6=Tuấn Ngọc - Vì Đó Là Em
TTITLE7=Thái Hiền - Mưa Còn Rơi Mãi Vì Ai
TTITLE8=Quang Dũng - Bài Tình Ca Của Em
TTITLE9=Diệu Hương - Còn Những Bâng Khuâng
TTITLE10=Hòa tấu - Ở Lại Ta Đi ( Beat )
EXTD=
EXTT0=
EXTT1=
EXTT2=
EXTT3=
EXTT4=
EXTT5=
EXTT6=
EXTT7=
EXTT8=
EXTT9=
EXTT10=
PLAYORDER=
